HIERARCHY
ROOT hip
{
  OFFSET 0 0 0
  CHANNELS 6 Xposition Yposition Zposition Zrotation Yrotation Xrotation
  JOINT abdomen
  {
    OFFSET 0 20.6881 -0.73152
    CHANNELS 3 Zrotation Xrotation Yrotation
    JOINT chest
    {
      OFFSET 0 11.7043 -0.48768
      CHANNELS 3 Zrotation Xrotation Yrotation
      JOINT neck
      {
        OFFSET 0 22.1894 -2.19456
        CHANNELS 3 Zrotation Xrotation Yrotation
        JOINT head
        {
          OFFSET -0.24384 7.07133 1.2192
          CHANNELS 3 Zrotation Xrotation Yrotation
          JOINT leftEye
          {
            OFFSET 4.14528 8.04674 8.04672
            CHANNELS 3 Zrotation Xrotation Yrotation
            End Site
            {
              OFFSET 1 0 0
            }
          }
          JOINT rightEye
          {
            OFFSET -3.6576 8.04674 8.04672
            CHANNELS 3 Zrotation Xrotation Yrotation
            End Site
            {
              OFFSET 1 0 0
            }
          }
        }
      }
      JOINT rCollar
      {
        OFFSET -2.68224 19.2634 -4.8768
        CHANNELS 3 Zrotation Xrotation Yrotation
        JOINT rShldr
        {
          OFFSET -8.77824 -1.95073 1.46304
          CHANNELS 3 Zrotation Xrotation Yrotation
          JOINT rForeArm
          {
            OFFSET -28.1742 -1.7115 0.48768
            CHANNELS 3 Zrotation Xrotation Yrotation
            JOINT rHand
            {
              OFFSET -22.5879 0.773209 7.07136
              CHANNELS 3 Zrotation Xrotation Yrotation
              JOINT rThumb1
              {
                OFFSET -1.2192 -0.487915 3.41376
                CHANNELS 3 Zrotation Xrotation Yrotation
                JOINT rThumb2
                {
                  OFFSET -3.37035 -0.52449 3.41376
                  CHANNELS 3 Zrotation Xrotation Yrotation
                  End Site
                  {
                    OFFSET -1.78271 -1.18214 1.43049
                  }
                }
              }
              JOINT rIndex1
              {
                OFFSET -7.75947 0.938293 5.60832
                CHANNELS 3 Zrotation Xrotation Yrotation
                JOINT rIndex2
                {
                  OFFSET -2.54057 -0.884171 1.56538
                  CHANNELS 3 Zrotation Xrotation Yrotation
                  End Site
                  {
                    OFFSET -1.62519 -0.234802 1.16502
                  }
                }
              }
              JOINT rMid1
              {
                OFFSET -8.24714 1.18213 3.41376
                CHANNELS 3 Zrotation Xrotation Yrotation
                JOINT rMid2
                {
                  OFFSET -3.10165 -0.590103 1.0647
                  CHANNELS 3 Zrotation Xrotation Yrotation
                  End Site
                  {
                    OFFSET -2.48547 -0.328903 0.83742
                  }
                }
              }
              JOINT rRing1
              {
                OFFSET -8.82822 0.546677 1.51678
                CHANNELS 3 Zrotation Xrotation Yrotation
                JOINT rRing2
                {
                  OFFSET -2.60934 -0.819778 -0.0198488
                  CHANNELS 3 Zrotation Xrotation Yrotation
                  End Site
                  {
                    OFFSET -2.33842 -0.294052 0.168128
                  }
                }
              }
              JOINT rPinky1
              {
                OFFSET -8.27202 -0.0477905 -0.4584
                CHANNELS 3 Zrotation Xrotation Yrotation
                JOINT rPinky2
                {
                  OFFSET -1.82734 -0.647385 -0.700984
                  CHANNELS 3 Zrotation Xrotation Yrotation
                  End Site
                  {
                    OFFSET -1.69225 -0.51767 -0.607171
                  }
                }
              }
            }
          }
        }
      }
      JOINT lCollar
      {
        OFFSET 2.68224 19.2634 -4.8768
        CHANNELS 3 Zrotation Xrotation Yrotation
        JOINT lShldr
        {
          OFFSET 8.77824 -1.95073 1.46304
          CHANNELS 3 Zrotation Xrotation Yrotation
          JOINT lForeArm
          {
            OFFSET 28.1742 -1.7115 0.48768
            CHANNELS 3 Zrotation Xrotation Yrotation
            JOINT lHand
            {
              OFFSET 22.5879 0.773209 7.07136
              CHANNELS 3 Zrotation Xrotation Yrotation
              JOINT lThumb1
              {
                OFFSET 1.2192 -0.487915 3.41376
                CHANNELS 3 Zrotation Xrotation Yrotation
                JOINT lThumb2
                {
                  OFFSET 3.37035 -0.52449 3.41376
                  CHANNELS 3 Zrotation Xrotation Yrotation
                  End Site
                  {
                    OFFSET 1.78271 -1.18214 1.43049
                  }
                }
              }
              JOINT lIndex1
              {
                OFFSET 7.75947 0.938293 5.60832
                CHANNELS 3 Zrotation Xrotation Yrotation
                JOINT lIndex2
                {
                  OFFSET 2.54057 -0.884171 1.56538
                  CHANNELS 3 Zrotation Xrotation Yrotation
                  End Site
                  {
                    OFFSET 1.62519 -0.234802 1.16502
                  }
                }
              }
              JOINT lMid1
              {
                OFFSET 8.24714 1.18213 3.41376
                CHANNELS 3 Zrotation Xrotation Yrotation
                JOINT lMid2
                {
                  OFFSET 3.10165 -0.590103 1.0647
                  CHANNELS 3 Zrotation Xrotation Yrotation
                  End Site
                  {
                    OFFSET 2.48547 -0.328903 0.83742
                  }
                }
              }
              JOINT lRing1
              {
                OFFSET 8.82822 0.546677 1.51678
                CHANNELS 3 Zrotation Xrotation Yrotation
                JOINT lRing2
                {
                  OFFSET 2.60934 -0.819778 -0.0198488
                  CHANNELS 3 Zrotation Xrotation Yrotation
                  End Site
                  {
                    OFFSET 2.33842 -0.294052 0.168128
                  }
                }
              }
              JOINT lPinky1
              {
                OFFSET 8.27202 -0.0477905 -0.4584
                CHANNELS 3 Zrotation Xrotation Yrotation
                JOINT lPinky2
                {
                  OFFSET 1.82734 -0.647385 -0.700984
                  CHANNELS 3 Zrotation Xrotation Yrotation
                  End Site
                  {
                    OFFSET 1.69225 -0.51767 -0.607171
                  }
                }
              }
            }
          }
        }
      }
    }
  }
  JOINT rButtock
  {
    OFFSET -8.77824 4.35084 1.2192
    CHANNELS 3 Zrotation Xrotation Yrotation
    JOINT rThigh
    {
      OFFSET 0 -1.70687 -2.19456
      CHANNELS 3 Zrotation Xrotation Yrotation
      JOINT rShin
      {
        OFFSET 0 -36.8199 0.73152
        CHANNELS 3 Zrotation Xrotation Yrotation
        JOINT rFoot
        {
          OFFSET 0.73152 -45.1104 -5.12064
          CHANNELS 3 Zrotation Xrotation Yrotation
          End Site
          {
            OFFSET -1.1221 -3.69964 12.103
          }
        }
      }
    }
  }
  JOINT lButtock
  {
    OFFSET 8.77824 4.35084 1.2192
    CHANNELS 3 Zrotation Xrotation Yrotation
    JOINT lThigh
    {
      OFFSET 0 -1.70687 -2.19456
      CHANNELS 3 Zrotation Xrotation Yrotation
      JOINT lShin
      {
        OFFSET 0 -36.8199 0.73152
        CHANNELS 3 Zrotation Xrotation Yrotation
        JOINT lFoot
        {
          OFFSET -0.73152 -45.1104 -5.12064
          CHANNELS 3 Zrotation Xrotation Yrotation
          End Site
          {
            OFFSET 1.1221 -3.69964 12.103
          }
        }
      }
    }
  }
}
MOTION
Frames:	9
Frame Time:	0.03333
0.0 0.0 0.0 0.0 0.0 0.0 0.0 0.0 0.0 0.0 0.0 0.0 0.0 0.0 0.0 0.0 0.0 0.0 0.0 0.0 0.0 0.0 0.0 0.0 0.0 0.0 0.0 0.0 0.0 0.0 0.0 0.0 0.0 0.0 0.0 0.0 0.0 0.0 0.0 0.0 0.0 0.0 0.0 0.0 0.0 0.0 0.0 0.0 0.0 0.0 0.0 0.0 0.0 0.0 0.0 0.0 0.0 0.0 0.0 0.0 0.0 0.0 0.0 0.0 0.0 0.0 0.0 0.0 0.0 0.0 0.0 0.0 0.0 0.0 0.0 0.0 0.0 0.0 0.0 0.0 0.0 0.0 0.0 0.0 0.0 0.0 0.0 0.0 0.0 0.0 0.0 0.0 0.0 0.0 0.0 0.0 0.0 0.0 0.0 0.0 0.0 0.0 0.0 0.0 0.0 0.0 0.0 0.0 0.0 0.0 0.0 0.0 0.0 0.0 0.0 0.0 0.0 0.0 0.0 0.0 0.0 0.0 0.0 0.0 0.0 0.0 0.0 0.0 0.0 0.0 0.0 0.0
-0.0789 55.517300000000006 0.44070000000000004 171.757072 -14.43973 -175.024364 -18.053802 11.018753 59.510763 -2.866613 -10.137747 -56.184315 3.696452 34.597179 144.784756 -22.889257 43.29032 -175.163372 0.001331 0.0 0.00296 -0.005136 0.0 -0.001419 4.111029 -55.643063 -11.142575 -119.074795 -29.208189 -177.136982 -139.745887 -40.155325 -135.396039 4.442413 2.404511 3.829638 -2.11211 2.070893 0.361277 -5.697386 6.69423 6.123307 -154.709536 -23.404571 122.043471 -64.53311 57.579964 48.797013 51.811144 -77.484385 24.485016 9.296138 -19.102974 -1.337435 -145.116777 -0.098503 -179.098582 -147.302096 -45.373412 -169.741649 -132.101665 -18.760276 -129.632577 -112.549399 -41.894911 -111.55677 -4.142095 -41.253111 7.948607 -94.606624 31.380049 79.59643 -160.815601 9.211973 -41.259433 149.154453 36.42015 -126.249802 176.908613 -14.513711 -89.661054 4.294089 -54.565374 -3.471817 -4.879025 -8.313721 2.506729 163.49233 -17.927496 -110.072384 -4.627518 -14.276688 2.134113 138.210059 44.799898 -126.347645 144.3558 -15.084977 174.253702 -10.925152 68.800892 -1.373317 154.485671 46.379635 149.105329 176.770867 75.242699 139.90044 -0.007996 0.001128 -0.005848 -61.829485 -55.880053 -149.842119 -82.639082 -2.021592 -123.021645 -65.882095 -21.401925 -163.809771 179.997495 75.748514 0.001577 -106.347645 73.29242 135.098724 -24.347781 -34.87987 -98.451792 -154.049244 -66.201763 107.875293
-0.1367 55.439899999999994 0.8094 171.935941 -14.644639 -174.956919 -13.257661 9.200882 -109.241548 4.500878 4.569421 111.846358 5.947228 31.882359 124.708872 -33.152546 34.006314 -154.023229 0.001537 0.0 0.002734 0.000954 0.0 0.000953 4.197796 -53.603441 -10.626041 -120.167358 -13.120263 179.831187 156.259548 -0.646331 -158.153048 -47.739365 75.54918 34.495895 3.975795 -3.95622 -0.475436 15.369672 -27.454166 -14.754993 176.498667 -61.62446 114.631457 165.678553 -59.506418 99.935825 177.854328 -61.053524 140.843653 -168.42083 -19.87618 143.985696 0.005468 1.436155 0.451498 8.778512 15.827458 2.140938 -25.806922 -38.291884 -24.860502 40.438871 81.379961 -3.006994 -3.124059 -25.052708 4.929873 -7.985947 -24.700523 64.941314 47.814119 -47.951565 -175.072496 173.723888 -21.794713 -147.052505 161.825827 0.478104 -89.190644 -16.88227 -55.776113 -20.520398 133.977779 11.294772 -111.911391 10.288133 30.015515 -0.444152 103.856503 58.533161 -94.708995 5.733025 23.172463 -5.238703 145.084204 -2.3657 178.385611 156.810746 26.281432 -177.776325 -20.86517 70.918126 -12.981147 14.307413 -29.69111 14.828768 179.994943 75.74997 0.004607 150.546445 2.833666 -95.75997 -79.689003 -4.636273 -153.624391 -130.849319 -36.412779 136.633555 0.000976 -0.000329 8.6e-05 14.93741 8.709476 92.416464 39.871961 -7.09329 1.700213 -93.135831 42.934524 -2.036552
-0.2082 55.3288 1.2807000000000002 172.170336 -14.946136 -174.888407 -12.643901 9.573218 -106.054183 4.979952 4.221256 108.356604 5.154862 22.464189 68.429414 -37.286849 -2.120254 -107.712359 -0.000941 -0.0 0.001879 -0.001496 -0.0 9.2e-05 2.467561 -18.286167 -3.682199 -88.941884 45.284005 136.827192 -46.977715 -29.277128 -32.935841 16.200693 -28.633897 10.604887 -138.495876 20.56063 81.40375 176.310485 -26.904546 80.67331 -16.670921 21.731648 11.424401 -152.303143 3.529059 109.036675 -163.97612 -17.150486 144.541139 -136.343504 46.077025 124.582671 -145.111069 -0.836339 -178.864385 11.758243 23.217332 -6.339421 -110.255821 -41.658524 -108.327329 6.044564 7.514951 0.760932 -4.045829 -56.774823 11.44557 -111.036713 31.743239 102.329841 3.364453 -2.426561 -103.664182 8.688201 -27.191903 6.740386 158.409321 3.802379 -88.542363 129.516262 5.153119 -62.381689 -13.300119 -23.799542 5.365113 6.102612 25.465379 -7.133182 155.212599 8.930713 -140.143032 158.535154 8.594309 -141.031967 0.951908 -16.940368 5.513862 -11.035105 8.486833 -0.820978 74.706302 -51.721623 73.187384 139.437188 -7.31177 137.170496 0.00013 -0.000552 0.00061 -63.663226 -54.453842 29.603753 72.9536 9.696802 -129.224413 -65.569182 -61.998248 38.017695 -179.997485 75.750194 -0.002465 -115.850771 72.579762 72.033224 26.78753 -25.434629 -109.696332 75.401074 -1.521965 -5.571745
-0.299 55.175700000000006 1.8487 172.46474 -15.296337 -174.831333 -14.239783 12.894197 -0.4163 4.9994 -8.941386 3.395102 -13.283043 22.089522 -42.472674 31.125958 -20.337853 11.049127 -0.000283 0.0 -0.002046 0.000595 0.0 0.003303 -155.970871 -6.672297 162.497231 40.463336 66.390802 -61.592983 114.059175 -83.224804 46.651696 157.799672 -32.56751 140.910127 1.598844 -1.583936 -0.224172 -98.318449 15.640619 89.680299 -155.852079 -25.51486 122.267343 20.863942 -18.398533 -10.864744 -166.336517 -24.733054 145.11998 -164.756472 -9.006714 143.367235 0.003365 0.428023 0.134324 6.307726 32.740036 5.357699 -149.808356 28.118479 -145.75318 -153.33455 28.674927 -144.970578 8.967402 33.301303 -10.45754 -54.910997 -81.276428 27.672542 75.890815 67.365345 176.869483 4.504561 -42.747501 8.22442 163.04415 -0.727396 -89.375737 83.010046 4.096022 -31.820802 158.817392 -30.900927 -122.638237 171.217665 -36.699743 -117.250365 156.899519 4.417357 -141.205842 168.057421 -19.345031 -143.885749 -0.005249 1.387411 -0.433562 -8.964091 14.180932 -1.885941 143.013172 5.546384 139.882085 18.580234 -34.373342 20.443546 179.989473 75.750387 0.008825 148.92323 2.815079 88.798229 70.597331 6.203168 -81.568734 67.441015 -10.45743 -10.618156 -0.001114 0.000847 0.000304 18.241565 4.755719 -97.305885 -50.855469 -6.810851 -102.663634 -97.548046 -32.043666 176.777398
-0.4303 54.9883 2.4962999999999997 172.841203 -15.651181 -174.812087 -11.063962 11.550714 -71.961981 7.746391 0.093589 73.943191 -15.22986 26.47605 -68.015905 41.5186 -5.749536 33.450552 -0.001061 0.0 -0.004077 -0.000174 -0.0 0.001275 -0.886075 5.003398 1.152506 -106.273902 23.213292 131.327062 -3.339035 17.887596 -60.439651 147.753589 -46.244954 132.588926 -21.818952 19.134051 6.927361 -141.915751 -43.631782 106.1258 -115.080896 30.032261 97.356472 5.874967 1.555449 -6.896049 -142.841327 33.235568 130.65142 -167.225862 -17.188604 143.880898 -0.013342 -1.156435 -0.363274 -149.749882 -74.912877 -172.90541 -53.425458 -50.20963 -52.110437 4.226238 2.281981 0.024986 2.866276 14.332752 -3.581517 -75.271009 6.716623 19.145267 9.616373 10.978661 -106.692166 6.969331 -32.853404 7.348226 75.087064 38.557114 -40.322105 -123.441571 -55.989832 -50.845862 169.45898 -47.638629 -121.384518 77.884575 56.754615 -63.063766 -16.415084 -48.396974 2.30474 1.687924 13.143263 -2.355621 -0.005206 1.035404 -0.325188 -10.488245 -3.621527 0.513444 154.846239 47.793882 149.315145 -5.590466 10.677595 -1.136072 179.281698 75.748343 0.559798 151.854611 3.000733 -82.847966 -70.630327 2.662078 108.514298 -13.619788 3.445012 -5.577078 -0.002676 -0.000125 -1.5e-05 16.608705 2.267091 100.120059 54.167707 -4.393748 106.879404 -123.79345 4.270154 177.593922
-0.6041000000000001 54.7808 3.2153 173.317211 -15.994471 -174.869584 -10.756892 12.92585 -41.117656 7.820721 -4.198169 43.329264 3.449819 20.822092 53.118619 -35.064084 -12.632095 -95.459913 0.004024 0.0 0.001207 -0.001619 -0.0 0.00219 -12.227063 39.894178 13.96034 -40.03278 27.636658 67.044774 -171.290657 -66.768467 -146.431592 -6.720552 37.066612 3.218615 -165.166656 -2.840776 89.63668 132.76633 -51.249854 90.166459 -148.330437 -11.601162 120.0222 -22.485851 44.349178 10.797588 -19.955083 38.799652 15.198144 14.411394 -33.045119 -1.173545 0.000206 0.028309 0.009601 -155.352966 -0.203063 171.869153 3.502385 9.924809 3.18408 -67.530422 -54.948627 -67.139593 159.187668 -51.904334 -171.290503 54.818488 27.267346 6.546718 8.052924 -30.019447 142.527228 167.512127 1.445095 -142.189337 171.260413 -8.942606 -89.951798 -175.173658 -20.636334 -95.731926 149.964416 -14.588738 -120.656616 -156.235068 -63.493791 -96.655021 169.932206 -35.723767 -145.359099 -12.226484 -27.18908 1.115017 0.008368 3.669234 -1.153042 -10.521299 -7.858258 1.028536 44.795639 -48.017913 43.576985 -4.499079 3.153734 -0.381931 -0.007658 -0.000229 -0.006963 -62.267608 -57.612912 150.727206 -60.845721 -69.766672 11.806751 138.101748 -29.40426 -119.058592 0.000657 -0.000337 0.00157 17.215926 -0.160566 90.499569 58.564356 -3.160335 56.930202 -54.962449 -35.773445 -145.914527
-0.8245 54.573899999999995 4.0024999999999995 173.878451 -16.313813 -175.028294 -9.419661 13.102547 -47.174837 7.853785 -3.362096 49.123514 -15.275254 27.410575 -71.035381 43.456274 -4.392416 36.034894 -0.003566 0.0 -0.000978 -0.00397 0.0 -0.002754 -154.883903 0.350335 160.996893 142.342692 48.721515 -153.679473 123.998099 -53.275755 69.210514 171.262259 0.684518 149.031529 -1.351505 1.329847 0.222585 -115.114419 -3.796605 104.229051 -14.935802 19.958846 10.095163 -173.801812 -27.060665 108.826333 -126.941243 49.002229 116.474653 -169.080299 -22.92018 144.037154 0.003756 0.473708 0.149348 -156.615077 -31.860061 175.5949 4.80695 14.044041 4.342984 175.033813 83.18673 -134.124909 -3.7909 -34.015308 6.573978 82.991393 -27.43571 109.685982 -14.341812 -2.553984 136.671653 158.472204 23.527923 -134.48019 10.679434 10.088089 -2.555813 130.946179 -31.14914 -110.91237 2.040963 3.237974 -1.191257 2.409707 17.749951 -4.255076 142.140187 34.217036 -130.057339 167.561839 -18.222997 -143.91808 0.054076 -3.277109 1.031884 -9.631949 11.434859 -1.463049 24.511151 -37.278325 23.591214 -16.412516 44.910004 -8.419088 -0.001073 9.5e-05 -0.000902 -61.017479 -55.917127 24.032848 80.521113 9.178154 58.754437 -30.28202 -8.262085 -146.023311 -0.001113 -0.000979 -0.0002 17.796087 -2.813221 88.778666 57.859282 6.829146 164.571754 -118.786171 57.33123 -157.805138
-1.1224 54.386500000000005 4.848 174.494725 -16.577642 -175.300105 -7.907986 13.11375 -58.728332 7.780821 -1.756169 60.347791 6.990666 31.459139 115.845635 -39.848502 30.956234 -144.026308 -0.004108 -0.0 0.002217 0.000326 -0.0 -0.005847 -0.67512 3.866092 0.883593 73.862302 -34.420221 47.638192 -12.810652 46.27833 40.514972 -3.257316 26.834917 2.547399 -28.811774 23.86508 10.376588 -10.224681 5.745584 21.814988 -164.236961 -40.050089 122.497492 -167.683235 -32.140092 117.957266 -17.329285 35.578649 12.919573 -159.069612 7.154709 141.637488 0.001224 -0.148503 -0.047061 4.47025 40.845278 7.523895 -62.64386 -51.487563 -61.241445 -173.650542 77.12078 -142.108084 141.928479 41.245634 -146.278728 -74.430914 -17.930662 -86.256193 -152.647693 35.756745 -56.97487 148.893312 37.736837 -125.654247 168.202376 -5.880447 -89.874721 167.243268 -6.676564 -86.562953 118.305358 27.633222 -100.010727 159.976276 -3.884519 -116.572157 -2.035122 -6.103206 1.050315 69.273164 64.044754 -61.840268 -0.003186 0.515361 -0.161259 -11.526326 -31.571838 3.781667 148.03226 21.656328 144.297005 37.244228 -46.672822 37.877442 179.985843 75.747783 0.00925 153.542814 3.778272 -87.553872 -81.741045 -3.752225 -85.214414 157.772521 21.077352 -169.719049 -0.020379 0.000174 -0.01385 20.497008 -5.808864 -107.845366 -65.231854 -20.135669 -51.259024 -43.939353 27.637256 177.215203
